<?xml version="1.0" encoding="UTF-8"?>
<svg id="Layer_2" data-name="Layer 2" xmlns="http://www.w3.org/2000/svg" viewBox="0 0 68.02 22.68">
  <defs>
    <style>
      .cls-1 {
        fill: #086c37;
      }
    </style>
  </defs>
  <g id="Logo">
    <g id="Version_2" data-name="Version 2">
      <g id="Logo-2" data-name="Logo">
        <path id="path971" class="cls-1" d="m56.59,5.45c.11.06.15.2.11.32-.23.69-.42,1.59-1.23,1.73-.29.06-.56-.2-.62-.48-.11-.59.53-.74.84-.94.27-.17.57-.81.89-.63m1.91,2.43c-.36.01-.34.3-.39.71-.16,1.4-.01,2.74-.25,4.09-.11.69-.65,2.08-.98,1.44-.07-1.32.14-2.34.21-3.37.05-.75.06-1.57-.2-2.13-.12-.28-.55-.26-.74.04-.22.32-.11,1.55-.06,2.28.38,2.46-.84,5.91.03,6.09.44.09.72-.55.98-1.21.16-.43.32-.96.52-1.37.16,1.05,1.31,3.15,1.63,2.82.31-.26-.39-.9-.4-1.51-.17-1.93.21-4.51.65-6.6.11-.53-.5-1.3-1-1.29m8.41,5.84c-.23-1.59-.65-5.11-1.11-5.12-.82-.26-1.09,3.1-1.9,2.86-.3-.55-.41-2.79-1.15-2.8-.7.08-.8,2.18-1.38,3.25-.04-1.01-.13-3.24-.95-3.47-.14,0-.27-.02-.27.13.01.52.21.97.23,1.48.06,1.96-.34,3.6-.6,5.62-.03.26-.11.58-.09.78.19.67,1.03,1.29,1.16.79.15-1.16.87-4.23,1.83-6.69.49,0,.37,1.65.38,2.49-.06,1.33-.68,2.54-.83,3.83.08.53.42.62.97.64.97.4,1.06-6.91,1.91-6.76.79-.14.63,4.68.93,6.87.32,2.49-.88,5.04-.02,5.07,1.23-.19,1.99-1.03,2.01-2.06-.22-2.73-.79-4.14-1.11-6.9"/>
        <path id="path973" class="cls-1" d="m55.66,14.72c-.41,0-.45.76-.76.77-.1,0-.18-.05-.15-.31.29-2.01.35-3.55.75-5.53.09-.6-.26-1.1-.82-1.25-.18,0-.41.16-.4.44-.11,2.36-.39,4.6-.44,6.7,0,.27.04,1.25.49,1.24.53.03,1.2-1.25,1.51-1.74,0-.06-.1-.33-.18-.33m-2.87-6.38c-.38.39-.56,2.01-1.3,2.95.1-.86.14-1.52.14-2.06,0-.04-.86-1-1.04-1-.2,0-.33.05-.32.24.01,1.71-.2,3.79-.39,5.22-.05.44-.2,1.08-.34,1.59,0,.19,0,.37.01.56.32.26.5.81,1.03.94.25-.03.22-.43.24-.77.02-.38.22-1.07.31-1.42.46-1.7.85-2.44,1.24-4.01.15-.15.24-.06.22.16-.22,1.81-.58,3.62-.29,5.26.29.41.61,1.01,1.19,1-.09-1.96-.07-4.92.07-6.96.14-1.06-.37-1.74-.77-1.68m-3.36.65c-.2-.42-.37-.93-.82-1.07-.47-.15-.47.7-.7,1.16-.33.69-.7,1.34-1.08,1.91-.04-.81-.06-1.5-.04-2.35-.37-.36-.7-.94-1.14-1.04-.15-.04-.46-.12-.46.23,0,.84.3,1.28.33,2.01.02.47.05,1.19.04,1.61-.05,1.64-.2,2.69-.39,4.23-.07.58.4.77.75.98.11.06.38.32.45-.08-.04-2.67.92-4.86,1.72-6.59.1-.23.42-.24.39.06-.02.25-.05.5-.09.75-.28,2.07-.22,3.63-.68,5.57-.03.68.8,1.42,1.19,2.08.1.14.3.15.26-.11-.06-.3-.18-.99-.18-1.49,0-2.35.04-4.61.44-6.94.07-.32.06-.5-.01-.91m-38.54-1.59c.03-.26-.56-.44-.91-.42-.37.35-.25.74-.33,1.4-.24,1.78-.63,3.64-1.7,5.2.31-1.96.54-4.05.94-5.88.08-.41-.18-.6-.65-.59-.61,0-.71.86-.7,1.44,0,.36-.04.81-.03,1.1,0,.2.03,1.03-.13,1.14-.02-.18.07-.36-.13-.36-1.39.02-1.85.26-2.98.31-.53.02-1.11-.14-1.38.23-.19.26-.06.43.24.54.67.23,1.69.43,2.81.45.07.22.14.56.12.77-.14,1.14-.43,2.47-1.55,2.59-.8.1-.99-.12-1.57-.61-.93-.77-1.19-2.45-1.25-3.1-.17-1.87-.29-4.73,1.58-5.25.62-.17.77-.02,1.12.18.05.3-.01.31-.07.57-.08.3.11.46.43.54.44.11.66-.78.66-1.05-.57-.9-2-.92-2.83-.6C-.43,7.19-.1,10.38.16,12.71c.45,2.26,1.28,4.32,3.73,4.71.97.23,2.32-.84,2.51-1.45.37-1.15.49-1.96.48-3.21.03-.77-.12-1.35.64-1.29.01.95-.23,2.4-.23,3.45.05.38-.1.69.41.74.61.07.44-.31.57-.78.16-.7.38-1.66.85-2.25.17.81.27,1.78.7,2.62.18.38.37.58.65.71.08.03.34,0,.3-.12-.82-2.14-.56-4.54-.19-6.73.12-.61.11-1.04.32-1.7m4.02,6.6c.21-1.94.81-3.74,1.37-5.52.17-.25.32-.21.32.02.02,1.83-.32,4.04-.67,5.93-.04.26-.14.66.04.83.45.44.7.66,1.21,1.18.48.25.49-.17.49-.44-.04-2.55.03-5.01-.07-7.57-.06-.71.11-1.1-.89-1.46-.66-.19-.88.97-1.06,1.46-.27.72-.27,1.24-.68,1.84-.14-.67-.01-1.45.11-2.23.07-.47-.45-1.19-1.02-1.3-.89.58-.93,2.05-1.5,2.84-.1-1.02.36-2.42-.65-2.56-.37,0-.59-.03-.67.34.08,2.55.18,4.96-.44,7.43,0,.12.02.33.12.37.34.14.57.42.94.41.5.1.18-.5.27-1.03.19-1.14.43-3.06.79-4.16.06-.5.57-1.27.82-1.86.09,1.85-.2,3.58-.46,5.4-.16,1.02.24,1.34,1.05,1.86.71,0,.41-1.22.57-1.8"/>
        <path id="path975" class="cls-1" d="m41.6,1.83c-.08-.15-.44-.46-.56-.2-.05.12-.07.24-.08.37l-.25,4.05c-.06,1.6-.1,3.48-.16,4.97-.03,1.21,0,3.28,0,4.25,0,1.03.22,2.25.85,2.26.54,0,.83-.57.96-1.07.03-.12.21-.14.27-.03.33.66.16,1.45.98,1.42.85-.03,1.22-2.55,1.59-3.85,0-.01,0-.03,0-.04h0c0-.16-.22-.2-.28-.06-.3.77-.63,1.6-1.21,2.29-.06.07-.17.07-.23-.01-.06-.09-.11-.23-.12-.38-.01-1.16.08-2.21.49-2.82.59-.86.85-2.06,1.06-2.99,0-.01,0-.02,0-.03-.01-.56.34-2.01-.31-2.17-.04,0-.08,0-.11.03-.04.03-.08.07-.13.1-.05.03-.07.09-.07.14.16,1.45-.16,2.8-.64,4.1-.05.14-.25.12-.28-.02-.08-.45-.05-.84-.02-1.36,0,0,0-.01,0-.02.12-.65.56-1.34.25-2-.04-.08-.14-.1-.21-.06-.63.4-1.21,1.92-1.03,2.99,0,.01,0,.02,0,.03-.14,1.28.13,2.73-.39,3.61-.08.13-.12.27-.18.41-.06.13-.25.11-.27-.03-.19-1.31.08-2.95,0-4.05-.08-1.15.19-3.16.48-4.51.06-.29.16-.63.25-1,0,0,.47-2.17-.67-4.32m-20.66,13.53c-.03.09-.12.13-.19.07-.36-.33-.81-1.84-1.03-2.97-.25-1.32-.1-2.51-.05-3.91,0-.15.18-.19.23-.06.47,1.07.8,2.02.94,3.6.05.8.24,2.74.1,3.27m.68-.85c0-1.87.02-3.63-.02-5.56-.02-1.01-.26-2.11-.99-2.11-.4,0-.49.35-.7.36-.14,0-.19,0-.18-.24.01-.37.04-.77.07-1.18l.04-.54c.08-.96.19-1.94.31-2.64,0-.04,0-.08-.02-.11-.4-.62-.93-1.21-1.34-1.7-.15-.18-.4-.05-.38.12.16,1.38.17,2.95.13,4.49v.24c-.05,1.17-.12,2.33-.2,3.38-.09,1.21-.05,2.56.04,3.21.15,1.09,0,3.29.34,3.65.08.19.18.47.48.46.01,0,.03,0,.04,0,.26-.11.31-.66.31-1.23,0-.16.19-.2.24-.05.05.15.11.31.19.53.18.5.56,1.15,1.08,1.14.66-.02.57-1.93.56-2.21m2.58-6.97c-.17-.29-.52-.37-.79-.37-1.13,0-1.17,1.94-1.26,2.71-.12,1.6.04,3.83.52,5.11.23.61.54.98,1,1.09.2.06.39.04.48,0,.54-.33,1.33-2.32,1.42-4.25.05-1.12.12-3.18-1.13-3.72-.2-.08-.35-.05-.35.18,0,.26.08.26.08.49,0,.17.04.38,0,.6-.11.76.37,1.39.37,2.49,0,1.22-.27,3.4-.65,3.36-.26-.04-.34-.64-.36-.79-.25-1.33-.37-2.43-.25-3.77.08-.95.42-2.29.94-3.12m11.03-2.71c-.31.15-.64.41-.99.79,0,0,0,0,0,0l-.42.52c-.33.45-.67,1-.99,1.66-.1.2-.4.15-.43-.07-.08-.61-.21-1.15-.29-1.65l-.07-.5c-.06-.82-.33-1.77-1.26-1.19-.36.22-.69.65-1.01,1.2,0,0-.09.17-.3.53-.33.59-.65,1.29-1.03,2.02v.02c-1.09,2.76-2.15,5.01-2.76,8.33-.08.45-.17,1.36-.24,1.86-.06.52.15.86.43,1.09.21.17.89.29,1.31.21.17-.03.31-.17.34-.34.21-1.14.21-2.76.48-4.47.23-1.42.7-3.7,1.28-5.26h0c.36-1.26.86-2.28,1.55-3.19.12-.16.37-.1.41.09.12.56.12,1.28.12,1.79.04,1.42-.14,2.5-.29,3.64-.16,1.18-.5,2.92-.72,4.22-.02.1.04.2.13.24.43.19.54.14.96.49.3.25.66.06.63-.25.11-1.92-.07-2.99.32-4.96.3-1.49.28-3.03,1.24-4.37.04-.05.09-.13.14-.21.18-.2.37-.39.57-.57.12-.12.24-.31.37-.43.09-.08.24-.03.26.09.01.1.02.21.01.31,0,.24-.05.47-.1.71-.07.33-.01.71-.08,1.03-.08.49-.05,1.69-.08,2.06-.03.36-.05.72-.05,1.08,0,.35,0,.68-.05,1.05-.14,1.07-.31,2.14-.46,3.22-.05.39-.4.78-.34,1.22,0,.01,0,.03.01.04,0,.02.01.04.03.05.11.13.38.05.77.05.45,0,.67-.31.82-.72.54-1.55-.19-2.06.23-4.92.1-.76.28-2.37.14-3.22-.08-.5.11-1.33.23-2.01l.08-.67s0-.04,0-.06c-.01-.57-.54-.72-.9-.54m3.54,8.93c0,.05-.02.1-.05.14-.38.51-.4,1.47-.9,1.38-.63-.13.34-3.84.09-6.09,0-.03-.01-.07-.03-.09-.17-.26-.43-.53-.78-.78-.14-.1-.34,0-.34.19.03,1.32-.22,2.59-.18,3.98.04,1.64.04,3.18.31,3.81.08.32.49.9,1.01.49.45-.31.55-.61.63-.94.05-.23.36-.23.42,0,.04.16.08.34.12.56v.04c.22.53.51,1.74.83,1.62.59-.2-.16-1.67-.13-2.23-.07-2.34.08-4.19.24-6.39.08-1.14.16-2.32.26-3.49.04-.5.28-3.05.43-4.22.03-.13.04-.27.04-.4v-.04s0-.02,0-.03c-.07-.65-.71-.93-1.24-1.22-.14-.08-.32.03-.31.2,0,.22.01.44.01.66v.25c0,1.34-.04,2.75-.11,4.18l-.31,8.43Zm-.62-7.88c-.03-.1-.14-.14-.18-.18-.07-.07-.16-.12-.25-.15-.62-.2-.86-.33-.92.02l-.02.42s0,.07,0,.11c.02.59-.14.84.56.95.29.05,1.09.24,1.14,0,.06-.27-.11-.4-.21-.79h0s-.12-.39-.12-.39Z"/>
      </g>
    </g>
  </g>
</svg>