<?xml version="1.0" encoding="UTF-8"?>
<svg id="Layer_2" data-name="Layer 2" xmlns="http://www.w3.org/2000/svg" viewBox="0 0 135.21 22.68">
  <defs>
    <style>
      .cls-1 {
        fill: #524439;
      }
    </style>
  </defs>
  <g id="Artifacts">
    <g id="Version_2" data-name="Version 2">
      <g id="Bottom">
        <path class="cls-1" d="m51.82,16.95c.98-.66,2.11-1.03,3.21-1.4,2.48-.83,5.1-.81,7.57-1.62,1.19-.39,2.1-1.28,2.94-2.14.28-.28,1.98-2.83.99-2.88-.98-.05-.85-.33-1.5.51-.36.47-.77.96-1.22,1.35-.94.82-2.79,1.03-3.57,1.01-1.48-.03-3.53-.31-4.61-1.37-.48-.47-.88-1.12-1.17-1.73-.74-1.56.32-5.62,1.65-5.24.24.07.72.29.92.04.17-.21-.22-.56-.37-.65-.49-.32-1.06-.25-1.58-.19-.77.09-1.31.86-1.65,1.47-.16.29-.4,1.7-.78,1.53-.84-.38-.9.91-.91,1.54,0,.63.3,1.14.69,1.63.28.34.58.67.93.94.22.17.75.43.76.77.02.65-1.11-.38-1.26-.45-.65-.32-1.21.02-.84.7.32.59.71,1.14,1.29,1.5,2.27,1.42,5.34.38,7.79.35.42,0,.4.47.14.66-.23.17-.58.17-.85.23-.64.13-1.25.09-1.9.12-1.22.05-2.47-.34-3.66-.27-1.07.06-2.42-.02-3.07,1.12-.34.6.48.49.52.86.03.26-.97.58-1.15.72-.95.75-1.46,1.89-.97,3.05.14.33.43,1.35.97,1.19.24-.07,1.27-.28.62-.69-1.11-.71-1-1.97.05-2.68Z"/>
        <path class="cls-1" d="m84.07,16.11c-.4-.35-.84-.41-1.3-.63-.38-.18.8-.52.86-.57.45-.38-.71-1.13-.97-1.28-.53-.31-2.01-.33-3.03-.13-.67.13-1.35.13-2.04.15-.75.02-3.02.33-3.47-.53-.36-.7,1.02-.37,1.18-.34.58.11,1.28.24,1.91.23,1.44,0,2.89.03,4.24-.58.33-.15,2.52-1.65,1.84-2.17-.31-.23-.61-.08-.9.08-.21.11-.41.22-.6.19-.56-.09.42-.88.52-.98.69-.67,1.73-2.29,1.16-3.32-.12-.22-.12-.71-.36-.82-.11-.05-.21,0-.31.04-.1.04-.19.09-.29.04-.16-.08-.38-1.08-.52-1.28-.47-.71-2.06-1.78-2.88-.96-.55.55.84.49,1.07.63.5.32.87.94,1.04,1.49.37,1.16.14,2.57-.44,3.62-1.29,2.34-4.58,3.28-7.03,2.66-1.36-.34-2.5-1.02-3.38-2.13-.39-.49-.46-.94-1.17-.73-.76.23-.87.48-.51,1.18,1.18,2.37,3.23,3.69,5.68,4.46,1.18.37,2.48.42,3.7.52,1.67.14,4.65,1.49,5.08,1.8.49.35.96.82,1.06,1.45.1.62-.46.83-.5,1.33-.05.5.82.05.96-.07,1.08-.99.37-2.54-.58-3.37Z"/>
        <path class="cls-1" d="m75.87,16.95c-.43.29-.9.58-1.43.53-2.27-.21-3.7-2.33-5.07-3.9-.25-.28-.57-.57-.95-.65-.15-.03-.31.01-.46.05-.14.04-.28.07-.42.06-.72-.07-1.03-.13-1.56.45-.89.96-1.57,2.07-2.53,2.98-.9.85-2.21,1.5-3.44,1.01-.32-.13-.69-.89-.98-.89-.5,0-.31.97-.21,1.19.28.63,1.03.91,1.62,1.13.27.1.56.06.84.02.17-.02.34-.05.51-.04.22.01.37,0,.49-.02.33-.05.38-.1.67.47.37.73,1.06.12,1.53-.2.85-.58,1.03-2.28,1.49-3.41.12-.3.9-1.06.98-.3.05.45-.43.97-.61,1.35-.28.58-.86,1.29-.94,1.94-.05.42-.05,1.44.22,1.79.08.1.25.08.41.06.19-.03.37-.05.36.12-.01.53.1.86.5,1.3.5.54.7,1.07,1.3.34.33-.41,1.16-1.02.65-1.57-.4-.43.38-.16.5-.14.46.07.57-.93.61-1.22.18-1.36-1.22-2.6-1.65-3.79-.24-.66.74-.6.92.01.17.6.38,1.16.61,1.74.2.52.55,1.18.98,1.55.35.3.8.56,1.2.74.5.22.42-.63.64-.78.17-.12.51-.05.84.02.25.05.49.1.66.08.58,0,1.01.06,1.47-.35.41-.36,1.03-.88,1-1.47-.04-.83-.39-.44-.76-.19Z"/>
        <path class="cls-1" d="m89.9,4.92c0-.1.01-.19-.01-.06-.01.29,0,.17.01.06Z"/>
        <path class="cls-1" d="m97.64,9.98c-.2-.5-.49-.81-.91-1.16-.23-.19-1.27-.5-.89-.87.51-.5.65-.78-.18-.95-1.39-.29-2.47-.02-3.55.89-.2.17-.98,1.06-1.29.65-.25-.34.64-.81.83-.9.45-.22.85-.54,1.04-1.03.19-.49-1.01-.49-1.29-.5-.5-.01-.96.46-1.32.76-.29.24-.75.65-.95.96-.33.49-.63.86-1.06,1.26-.23.22-.43-.16-.36-.35.1-.26.4-.48.59-.67.87-.92,1.53-1.89,1.59-3.19.08-.49-.35-1.13-.76-1.37-.21-.12-1.08-.28-.7.23.74.99.27,2.22-.39,3.08-.84,1.1-1.74,1.98-2.87,2.78-.53.38-.99.6-1.33,1.15-.2.34-.88,1.13-.9,1.48-.03.39,1.28-.17,1.45-.23.63-.22,1.23-.5,1.85-.72,1.39-.49,2.78-1,4.2-1.37,2.19-.56,4.89-1.52,6.82.28.44.41.6.35.38-.2Z"/>
        <path class="cls-1" d="m52.22,11.91c-.22-.45-.62-.78-.76-1.29-.12-.43-.87-.68-1.24-.86-.54-.28-.96-.74-1.37-1.18-.72-.77-1.68-1.46-2.1-2.49-.22-.54-.42-1.02-.18-1.6.08-.19.85-1.04.22-1.06-1.12-.04-1.66,1.33-1.4,2.25.32,1.18,1.09,2.2,2.01,3.01.06.05.4.44.05.43-.29,0-.59-.35-.79-.51-.53-.43-.94-.95-1.42-1.43-.34-.34-.88-1.09-1.44-1.05-.31.02-1.41-.18-1.41.35,0,.55.79.8,1.17,1.01.12.07,1.21,1.08.54.91-1.16-.3-1.9-1.74-3.27-1.64-.21-.02-1.62.33-1.7.53-.13.3.48,1.04.13,1.15-.34.11-2.4,1.74-1.68,1.88.3.06.82-.63,1.1-.76.6-.28,1.31-.51,1.99-.44.62.06,1.19.05,1.81.13.68.09,1.36.32,2.02.51,2.26.66,4.58,1.14,6.7,2.18.14.07,1.29.51,1.04-.01Z"/>
        <path class="cls-1" d="m42.71,5.84c1.57.16-.73-1.39-1.06-1.58-3.87-2.26-8.24-3.41-12.69-2.54-1.2.24-2.32.64-3.45,1.12-.52.22-1.05.49-1.45.9-.32.32.19.35.36.44.78.37.97.16,1.67-.29.49-.31,1.02-.59,1.57-.79.88-.32,2.23-.95,3.18-.82.16,0,.9.08.39.29-.43.18-1.14.52-1.4.93-.27.42.77.32.53.71-.22.36-.27.9-.2,1.31.08.47.27.99.82,1.03.73.05.27-.62.27-.99-.02-1.03.9-1.9,1.88-2.06,2.18-.36,4.81.18,6.8,1.14.91.44,1.75,1.11,2.78,1.22Z"/>
        <path class="cls-1" d="m109.37,2.83c-1.04-.49-2.14-.81-3.26-1.03-1.17-.23-2.41-.17-3.6-.27-.9-.08-1.95.12-2.82.34-1.81.45-3.61,1.2-5.22,2.15-.64.37-1.3.71-1.95,1.06-.18.1-.9.6-.21.62,1.15.04,1.92-.57,2.94-.97,2.1-.83,5.79-1.37,6.29-1.39,1.03-.12,2.22.49,2.71,1.39.29.54.22.75-.02,1.26-.24.51.41.44.66.29.55-.34.54-.86.46-1.44-.07-.55-.31-.61.08-1.05.33-.38-1.14-1.12-.82-1.18.9-.16,2.44.35,3.22.78.47.26.93.4,1.36.75.42.35.67.54,1.21.25,1.13-.59-.41-1.25-1.04-1.55Z"/>
        <path class="cls-1" d="m73.87,5.87c-.53-.37-.76-.81-1.38-.22-.45.43-.54,1.01-.36,1.58.15.47.87.88,1.42.9,1.65.03,2.56-1.63,2.58-2.8.02-1.34-.93-2.83-2.25-3.24-1.53-.47-3.05-.5-4.26.74-.54.56-.95,1.17-1.29,1.87-.17.35-.64,1.54-.35,1.88.45.54,1.47-.03,1.62-.56.18-.62.39-1.24.87-1.7.89-.84,2.72-1.24,3.54,0,.16.23.29,1.86-.15,1.55Z"/>
        <path class="cls-1" d="m64.88,2.31c-1.21-.62-2.52-.63-3.71.07-1.24.73-1.86,2.15-1.72,3.51.11,1.09,1.17,2.36,2.36,2.24,1.7,0,2.18-2.75.38-2.72-.74.01-1.06.89-1.17-.21-.06-.65.54-1.15,1.07-1.4,1.39-.64,2.73,0,3.44,1.32.29.54.15,1.32.81,1.57.74.29.99-.17.86-.84-.29-1.52-.91-2.81-2.34-3.55Z"/>
        <path class="cls-1" d="m97.74,9.07c-.14.12.46,1.25.55,1.42.41.75.39,2.07-.27,2.66-.24.22-.62.29-.93.22-.35-.08-.5-.6-.83-.61-.35-.01-.47.48-.79.55-.49.11-.69.16-.88.71-.33,1,.59,1.49,1.32,1.77.83.32,2.08-.17,2.59-.59.63-.5,1.08-1.54,1.1-2.42.11-.96-.41-2.09-.94-2.85-.1-.14-.65-1.08-.92-.86Z"/>
        <path class="cls-1" d="m39.44,12.73c-.8-.84-.75.41-1.19.63-.83.42-1.59-.74-1.57-1.44.01-.46.13-1,.26-1.44,0,0,.46-1.14.04-.87-.57.36-1.06,1.62-1.06,2.29,0-.06,0-.11,0,.04,0,.04,0,.05,0,.05.12,1.76,1.05,4.25,3.29,3.97.69-.09,2.09-.59,1.78-1.61-.27-.91-.98-1.02-1.55-1.61Z"/>
        <path class="cls-1" d="m65.71,7.02c-.35-.23-1.09-.68-.87.22.48,1.95,5.97,1.52,5.69-.07-.07-1.06-.64-.31-1.23-.06-.59.25-1.28.28-1.92.28-.56,0-1.19-.07-1.67-.38Z"/>
        <path class="cls-1" d="m67.6,12.3c.99,0,1.05-1.58.04-1.58-.99,0-1.03,1.58-.04,1.58Z"/>
        <rect class="cls-1" x="0" y="0" width="135.21" height=".64" rx=".31" ry=".31"/>
      </g>
    </g>
  </g>
</svg>
