<?xml version="1.0" encoding="UTF-8"?>
<svg id="Layer_2" data-name="Layer 2" xmlns="http://www.w3.org/2000/svg" viewBox="0 0 134.09 22.68">
  <defs>
    <style>
      .cls-1 {
        fill: #524439;
      }
    </style>
  </defs>
  <g id="Artifacts">
    <g id="Version_2" data-name="Version 2">
      <g id="Top">
        <path class="cls-1" d="m50.72,6.54c.17.14,1.16.45,1.14.71-.04.37-.86.26-.52.85.64,1.13,1.98,1.05,3.04,1.11,1.19.07,2.42-.32,3.63-.27.65.03,1.25-.01,1.88.12.27.06.61.06.84.23.26.19.28.66-.13.65-2.43-.03-5.47-1.05-7.72.35-.57.36-.96.91-1.28,1.49-.36.67.19,1.01.84.69.14-.07,1.27-1.08,1.25-.44-.01.33-.54.59-.76.76-.35.27-.65.59-.93.94-.39.48-.69.99-.69,1.62,0,.63.06,1.9.9,1.53.38-.17.61,1.23.78,1.52.34.61.88,1.37,1.64,1.46.52.06,1.08.12,1.57-.19.14-.09.53-.44.36-.65-.2-.25-.67-.02-.91.04-1.32.38-2.36-3.64-1.63-5.19.29-.61.69-1.25,1.16-1.72,1.07-1.05,3.1-1.32,4.57-1.36.77-.02,2.61.19,3.54,1.01.44.39.85.87,1.21,1.34.64.83.51.56,1.48.51.98-.05-.71-2.58-.98-2.86-.84-.85-1.73-1.73-2.91-2.12-2.46-.81-5.05-.79-7.51-1.61-1.1-.37-2.22-.73-3.19-1.38-1.05-.71-1.15-1.95-.05-2.66.64-.41-.38-.61-.62-.69-.53-.16-.83.85-.96,1.18-.48,1.16.02,2.28.96,3.03Z"/>
        <path class="cls-1" d="m68.12,12.58c-.35.7-.25.95.51,1.17.71.21.78-.23,1.16-.72.87-1.1,2-1.77,3.35-2.11,2.43-.61,5.7.31,6.98,2.64.58,1.05.81,2.45.44,3.59-.18.55-.53,1.16-1.03,1.48-.23.14-1.61.08-1.06.63.82.81,2.39-.25,2.86-.95.14-.2.36-1.2.51-1.27.1-.05.19,0,.29.04.1.04.2.09.3.04.24-.12.24-.6.36-.82.57-1.02-.46-2.63-1.15-3.29-.1-.1-1.07-.89-.52-.97.19-.03.39.08.6.19.29.15.59.31.9.08.68-.51-1.5-2.01-1.82-2.15-1.34-.6-2.78-.57-4.21-.57-.62,0-1.32.12-1.9.23-.15.03-1.53.36-1.17-.34.45-.86,2.7-.55,3.44-.52.68.02,1.35.02,2.02.15,1.01.19,2.48.17,3-.13.25-.15,1.41-.89.96-1.27-.06-.05-1.23-.38-.85-.56.46-.22.89-.28,1.29-.62.95-.82,1.65-2.36.58-3.34-.13-.12-.99-.56-.95-.07.05.49.6.71.5,1.32-.1.62-.56,1.09-1.05,1.43-.43.31-3.38,1.64-5.04,1.78-1.21.1-2.5.15-3.67.52-2.43.76-4.46,2.08-5.63,4.42Z"/>
        <path class="cls-1" d="m58.53,6.04c.29,0,.65-.75.97-.88,1.22-.48,2.52.15,3.42,1,.96.9,1.63,2,2.51,2.96.53.57.84.51,1.55.44.14-.01.28.02.41.06.15.04.3.08.46.05.38-.07.7-.36.94-.64,1.36-1.57,2.78-3.66,5.03-3.87.53-.05,1,.24,1.42.52.37.25.71.64.75-.18.03-.59-.59-1.1-.99-1.46-.46-.4-.88-.35-1.46-.35-.16-.03-.4.03-.65.08-.33.07-.67.14-.84.02-.22-.15-.14-.99-.64-.77-.4.18-.85.43-1.19.73-.43.37-.77,1.03-.97,1.54-.23.58-.43,1.13-.61,1.73-.17.61-1.15.67-.91.01.43-1.18,1.81-2.41,1.64-3.76-.04-.29-.15-1.28-.61-1.21-.12.02-.89.29-.5-.14.5-.54-.32-1.16-.65-1.56-.6-.72-.8-.2-1.29.33-.4.43-.51.76-.5,1.29,0,.17-.17.15-.36.12-.16-.02-.33-.04-.41.06-.27.35-.27,1.36-.22,1.78.08.64.65,1.34.93,1.92.18.38.65.9.61,1.34-.08.75-.85,0-.98-.3-.46-1.12-.64-2.81-1.48-3.38-.47-.32-1.15-.93-1.52-.2-.29.57-.33.52-.66.47-.12-.02-.27-.03-.49-.02-.16,0-.33-.02-.5-.04-.28-.04-.56-.08-.83.02-.58.21-1.33.49-1.61,1.12-.1.22-.29,1.18.21,1.18Z"/>
        <path class="cls-1" d="m89.14,17.66c.02.13.02.04.01-.06,0-.11-.03-.23-.01.06Z"/>
        <path class="cls-1" d="m82.24,10.37c.02.35.69,1.13.9,1.47.33.55.79.77,1.32,1.14,1.12.79,2.01,1.66,2.84,2.76.66.86,1.12,2.08.39,3.06-.38.51.48.35.69.22.41-.23.84-.87.75-1.35-.06-1.29-.71-2.26-1.58-3.17-.18-.19-.48-.42-.58-.67-.07-.19.13-.56.36-.35.43.4.72.77,1.05,1.25.21.3.66.71.95.95.36.29.81.76,1.31.75.27,0,1.46-.01,1.28-.5-.18-.48-.58-.8-1.03-1.02-.18-.09-1.06-.56-.82-.9.3-.42,1.07.47,1.28.64,1.07.9,2.14,1.17,3.52.88.82-.17.68-.45.18-.94-.38-.37.65-.67.88-.86.42-.34.7-.66.9-1.15.22-.55.06-.61-.38-.2-1.92,1.78-4.6.84-6.77.28-1.41-.36-2.79-.87-4.16-1.36-.62-.22-1.22-.49-1.84-.72-.17-.06-1.46-.62-1.44-.23Z"/>
        <path class="cls-1" d="m38.35,13.01c-.27-.13-.79-.81-1.09-.75-.72.14,1.33,1.75,1.66,1.87.34.11-.26.85-.13,1.15.09.2,1.48.54,1.69.52,1.35.11,2.09-1.32,3.24-1.62.66-.17-.41.83-.54.9-.38.21-1.16.46-1.16,1.01,0,.52,1.09.32,1.39.34.55.04,1.09-.7,1.43-1.04.48-.48.88-1,1.41-1.42.2-.16.5-.5.79-.51.35,0,0,.38-.05.43-.9.81-1.67,1.82-1.99,2.99-.25.91.28,2.27,1.39,2.23.62-.02-.14-.86-.22-1.06-.23-.58-.03-1.05.18-1.59.41-1.03,1.37-1.71,2.08-2.47.41-.44.82-.89,1.36-1.17.36-.18,1.11-.43,1.23-.86.14-.51.54-.83.76-1.28.25-.51-.89-.08-1.03-.01-2.1,1.03-4.4,1.51-6.64,2.16-.65.19-1.33.42-2,.5-.61.08-1.19.07-1.8.13-.67.06-1.37-.16-1.97-.44Z"/>
        <path class="cls-1" d="m25.29,19.67c1.12.48,2.23.88,3.43,1.11,4.42.86,8.75-.28,12.59-2.52.33-.19,2.61-1.73,1.05-1.57-1.02.11-1.85.77-2.75,1.21-1.98.95-4.58,1.49-6.75,1.13-.97-.16-1.89-1.03-1.87-2.05,0-.37.46-1.03-.27-.98-.55.04-.73.55-.81,1.02-.07.4-.02.94.2,1.3.24.38-.79.29-.53.7.26.4.96.74,1.39.92.5.21-.23.29-.38.29-.95.12-2.28-.5-3.16-.82-.55-.2-1.06-.47-1.55-.78-.7-.45-.89-.66-1.66-.29-.18.08-.67.12-.36.43.4.4.93.67,1.44.89Z"/>
        <path class="cls-1" d="m91.54,16.85c-.69.02.02.52.21.61.65.34,1.3.68,1.94,1.05,1.6.93,3.38,1.68,5.18,2.13.86.22,1.9.41,2.79.33,1.18-.1,2.41-.04,3.57-.27,1.11-.22,2.21-.54,3.23-1.02.63-.3,2.15-.95,1.03-1.54-.54-.28-.79-.09-1.2.25-.42.35-.88.49-1.35.75-.78.42-2.31.93-3.2.78-.32-.06,1.14-.79.81-1.17-.39-.44-.15-.5-.08-1.05.08-.58.09-1.1-.46-1.43-.25-.15-.9-.23-.66.28.24.51.31.72.02,1.25-.49.9-1.66,1.5-2.69,1.38-.49-.02-4.15-.56-6.23-1.38-1.01-.4-1.78-1-2.92-.96Z"/>
        <path class="cls-1" d="m69.05,19.68c1.2,1.23,2.7,1.2,4.22.74,1.31-.4,2.25-1.88,2.23-3.21-.02-1.16-.92-2.81-2.56-2.78-.55.02-1.26.43-1.41.89-.18.57-.09,1.14.35,1.57.62.59.84.15,1.37-.22.44-.31.3,1.3.15,1.54-.81,1.23-2.63.83-3.51,0-.48-.45-.69-1.07-.87-1.68-.15-.53-1.17-1.08-1.61-.55-.29.34.18,1.51.35,1.87.34.69.74,1.3,1.28,1.85Z"/>
        <path class="cls-1" d="m61.68,17.12c1.79.03,1.31-2.7-.38-2.7-1.18-.12-2.23,1.15-2.34,2.22-.14,1.35.48,2.76,1.7,3.48,1.18.69,2.48.69,3.68.07,1.42-.73,2.03-2.02,2.32-3.52.13-.66-.12-1.12-.86-.83-.65.25-.51,1.02-.8,1.56-.71,1.31-2.04,1.95-3.42,1.31-.53-.24-1.12-.74-1.06-1.39.1-1.09.42-.22,1.16-.2Z"/>
        <path class="cls-1" d="m94.68,9.29c.32.07.44.56.78.55.33-.01.48-.52.82-.6.31-.07.69,0,.93.22.65.59.67,1.89.27,2.64-.09.17-.69,1.29-.54,1.4.27.22.81-.71.91-.85.53-.76,1.05-1.88.94-2.83-.03-.88-.47-1.91-1.09-2.4-.51-.41-1.75-.89-2.57-.58-.72.28-1.64.76-1.31,1.75.18.55.38.6.87.71Z"/>
        <path class="cls-1" d="m35.62,10.69c0,.66.49,1.91,1.05,2.27.42.26-.04-.86-.04-.86-.13-.43-.25-.98-.26-1.43-.02-.7.74-1.85,1.56-1.43.43.22.39,1.46,1.18.63.56-.59,1.26-.69,1.53-1.6.3-1.01-1.08-1.51-1.76-1.6-2.22-.28-3.14,2.19-3.26,3.94,0,0,0,0,0,.05,0,.15,0,.1,0,.04Z"/>
        <path class="cls-1" d="m68.73,15.43c.58.25,1.15.99,1.22-.06.28-1.58-5.17-2-5.64-.07-.22.9.51.45.86.22.48-.31,1.1-.38,1.66-.38.63,0,1.32.03,1.9.28Z"/>
        <path class="cls-1" d="m67.04,10.3c-.98,0-.95,1.56.04,1.56,1.01,0,.95-1.56-.04-1.56Z"/>
        <rect class="cls-1" y="22.05" width="134.09" height=".63" rx=".31" ry=".31"/>
      </g>
    </g>
  </g>
</svg>
